<svg width="94" height="79" viewBox="0 0 94 79" fill="none" xmlns="http://www.w3.org/2000/svg">
<path d="M32.7989 22.5795C32.6612 22.6925 32.5545 22.9068 32.4553 23.0635C28.7158 28.9478 25.1274 34.6257 21.6902 40.097C21.2741 40.758 20.7961 40.8785 20.0321 40.8678C17.1355 40.8245 14.0981 40.8163 10.9198 40.8433C10.5719 40.8454 10.5847 40.4766 10.7192 40.274C15.8757 32.5112 21.109 24.581 26.4192 16.4834C26.8496 15.8273 27.2789 15.1919 27.7071 14.5771C28.8637 12.9193 30.5838 12.1197 32.5759 12.0238C34.3464 11.9392 35.8249 12.5295 37.0114 13.7946C37.36 14.1663 37.7182 14.6077 38.0859 15.1187C38.9602 16.3355 39.7498 17.4823 40.4547 18.5591C42.0161 20.9423 43.41 23.0418 44.6363 24.8578C45.0695 25.4985 44.7238 26.3024 43.9172 26.3035C41.5534 26.3056 39.0299 26.3074 36.3467 26.3088C36.0486 26.3095 35.8054 26.2672 35.6169 26.1819C35.2295 26.0081 35.0802 25.7288 34.8497 25.3855C34.2536 24.4985 33.6507 23.576 33.0411 22.6179C32.9749 22.5141 32.8942 22.5013 32.7989 22.5795Z" fill="#F18A21"/>
<path d="M77.6401 31.7695C77.6857 31.837 77.7458 31.9056 77.8205 31.9753C78.265 32.3953 78.7178 32.8196 79.1788 33.2482C79.4018 33.4551 79.3591 33.7696 79.1948 34.019C77.7813 36.1563 76.3601 38.3109 74.931 40.483C74.8421 40.618 74.7275 40.7072 74.5874 40.7506C74.5523 40.7615 74.5144 40.7597 74.4807 40.7452C74.3278 40.6791 74.1958 40.58 74.0848 40.4478C72.5284 38.6077 70.914 36.689 69.2417 34.6918C68.7807 34.1409 68.2365 33.7603 67.6091 33.5499C67.2563 33.432 66.747 33.3762 66.0812 33.3826C64.1328 33.4018 62.2485 33.4359 60.3118 33.4124C58.7305 33.3932 57.2538 33.3886 55.8816 33.3986C55.5124 33.4018 55.0387 33.358 55.0131 33.8751C54.9981 34.1573 54.9899 34.4508 54.9885 34.7557C54.9793 36.3009 55.0102 38.14 55.0813 40.2729C55.0856 40.4137 55.0629 40.5537 55.0131 40.693C55.001 40.7285 54.9771 40.7527 54.9416 40.7655C54.7787 40.8252 54.614 40.8554 54.4475 40.8561C51.96 40.859 49.3803 40.8604 46.7085 40.8604C45.9605 40.8604 45.937 40.4744 45.952 39.8486C46.0416 35.9459 46.0669 32.0435 46.0277 28.1415C46.0224 27.6329 45.9957 27.1191 46.0416 26.6244C46.0768 26.2363 46.3969 26.2001 46.7117 26.2001C54.7186 26.1994 62.7329 26.1994 70.7547 26.2001C71.7876 26.2001 72.7265 26.0711 73.6772 25.5849C74.868 24.9783 75.4965 23.9868 75.2927 22.6392C74.9907 20.6445 72.6561 20.072 70.9798 20.0709C62.8606 20.0695 54.6816 20.0695 46.4428 20.0709C46.144 20.0709 46.1376 19.7042 46.2774 19.5282C47.789 17.6156 49.3422 15.6156 50.9371 13.5281C51.4855 12.8106 51.8045 12.4172 52.7766 12.4172C58.5427 12.414 64.3772 12.3713 70.2095 12.4577C73.7317 12.5089 77.4011 12.9908 80.3834 14.946C82.8546 16.5676 84.4306 18.8395 84.5768 21.8588C84.6675 23.7544 84.2652 25.8141 83.3455 27.4421C82.0789 29.681 80.0751 30.8377 77.6818 31.6437C77.6696 31.6479 77.6586 31.6548 77.6495 31.6639C77.6405 31.673 77.6337 31.6841 77.6297 31.6963C77.6257 31.7085 77.6245 31.7214 77.6263 31.7341C77.6281 31.7468 77.6329 31.7589 77.6401 31.7695Z" fill="#218BC7"/>
<path d="M32.5706 34.0105H30.3064C30.2905 34.0105 30.2776 34.0234 30.2776 34.0393V36.3272C30.2776 36.3431 30.2905 36.356 30.3064 36.356H32.5706C32.5865 36.356 32.5994 36.3431 32.5994 36.3272V34.0393C32.5994 34.0234 32.5865 34.0105 32.5706 34.0105Z" fill="#F18A21"/>
<path d="M35.5506 34.0125L33.3035 34.0085C33.2829 34.0085 33.2661 34.0252 33.2661 34.0458L33.2621 36.3166C33.2621 36.3373 33.2788 36.354 33.2994 36.354L35.5465 36.3579C35.5672 36.358 35.5839 36.3413 35.584 36.3207L35.5879 34.0498C35.588 34.0292 35.5713 34.0125 35.5506 34.0125Z" fill="#F18A21"/>
<path d="M32.5685 37.0234H30.3085C30.2914 37.0234 30.2776 37.0372 30.2776 37.0543V39.3081C30.2776 39.3252 30.2914 39.339 30.3085 39.339H32.5685C32.5856 39.339 32.5994 39.3252 32.5994 39.3081V37.0543C32.5994 37.0372 32.5856 37.0234 32.5685 37.0234Z" fill="#F18A21"/>
<path d="M35.5465 37.0223H33.3015C33.2803 37.0223 33.2631 37.0395 33.2631 37.0607V39.3017C33.2631 39.3229 33.2803 39.3401 33.3015 39.3401H35.5465C35.5677 39.3401 35.5849 39.3229 35.5849 39.3017V37.0607C35.5849 37.0395 35.5677 37.0223 35.5465 37.0223Z" fill="#F18A21"/>
<path d="M46.0747 54.0057C46.7654 54.3078 47.2594 54.8544 47.5568 55.6454C47.783 56.2478 47.8758 56.8779 48.0721 57.4877C48.3119 58.234 48.5121 58.9369 48.6729 59.5965C48.6999 59.7067 48.6611 59.7841 48.5566 59.8289C48.3207 59.9281 47.6816 59.847 47.4053 59.8396C46.9262 59.8278 46.446 59.8833 45.9616 59.8502C45.8961 59.8456 45.8337 59.8205 45.7834 59.7786C45.733 59.7367 45.6972 59.6801 45.681 59.6167C45.3516 58.3374 45.0358 57.1046 44.7334 55.9183C44.5264 55.106 43.9054 54.9194 43.0945 54.9279C42.6179 54.9329 42.1794 54.9375 41.7789 54.9418C41.5989 54.9439 41.5086 55.0349 41.5079 55.2147L41.4897 59.5933C41.4895 59.6625 41.4619 59.7287 41.4132 59.7777C41.3644 59.8266 41.2983 59.8542 41.2294 59.8545C40.5593 59.8602 39.8568 59.8715 39.122 59.8886C38.8218 59.8957 38.6728 59.7546 38.6749 59.4654C38.7077 55.3878 38.7169 51.4623 38.7027 47.6889C38.7027 47.5802 38.7269 47.4739 38.7752 47.3701C38.7911 47.3378 38.8176 47.3125 38.8499 47.2987C38.963 47.2483 39.0793 47.2202 39.1989 47.2145C41.3137 47.1196 43.4466 46.9981 45.5657 47.2795C46.8397 47.449 47.8929 48.1687 48.1383 49.4544C48.2372 49.974 48.2727 50.5749 48.245 51.2572C48.2119 52.06 47.9014 53.0398 47.2015 53.462C46.8785 53.6575 46.505 53.8124 46.0811 53.9268C46.005 53.9474 46.0028 53.9737 46.0747 54.0057ZM41.4823 49.592L41.4716 52.4385C41.4715 52.477 41.4789 52.5152 41.4935 52.5508C41.5081 52.5864 41.5296 52.6188 41.5568 52.6461C41.5839 52.6735 41.6162 52.6952 41.6517 52.71C41.6873 52.7249 41.7254 52.7326 41.764 52.7328L43.9289 52.7402C44.1219 52.741 44.3131 52.7074 44.4916 52.6413C44.6701 52.5753 44.8324 52.4781 44.9693 52.3553C45.1061 52.2325 45.2148 52.0866 45.2891 51.9258C45.3635 51.765 45.402 51.5925 45.4025 51.4182L45.4046 50.6378C45.4056 50.2863 45.2521 49.9488 44.9778 49.6993C44.7035 49.4498 44.3308 49.3088 43.9417 49.3073L41.7768 49.2998C41.7382 49.2997 41.7 49.3071 41.6644 49.3217C41.6287 49.3363 41.5963 49.3578 41.569 49.385C41.5416 49.4121 41.5199 49.4443 41.505 49.4798C41.4901 49.5154 41.4824 49.5534 41.4823 49.592Z" fill="#F18A21"/>
<path d="M27.8501 57.1732C28.0145 57.3644 28.2503 57.4603 28.5576 57.4611C29.9013 57.4639 31.2144 57.4664 32.497 57.4685C32.6236 57.4692 32.752 57.4774 32.8822 57.493C32.9283 57.4986 32.971 57.5204 33.0025 57.5546C33.034 57.5889 33.0523 57.6332 33.054 57.6796L33.1233 59.5155C33.1251 59.5592 33.11 59.6019 33.081 59.6348C33.052 59.6678 33.0114 59.6884 32.9675 59.6925C31.0832 59.8641 29.1434 59.9622 27.2601 59.8534C25.7471 59.7671 24.8646 58.7937 24.8636 57.2276C24.8607 54.0889 24.86 50.9328 24.8614 47.7593C24.8614 47.6029 24.8902 47.4608 24.9479 47.3329C24.9635 47.2973 24.9898 47.2756 25.0268 47.2678C25.1292 47.2444 25.2345 47.2348 25.3427 47.239C25.9978 47.2625 26.6515 47.2604 27.3038 47.2326C27.5258 47.2234 27.6406 47.3396 27.6485 47.5813C27.6773 48.4459 27.6325 49.3521 27.6431 50.2253C27.668 52.2367 27.6734 54.2986 27.6591 56.4109C27.6581 56.638 27.7061 57.0058 27.8501 57.1732Z" fill="#218BC7"/>
<path d="M15.7182 56.5346C15.6008 56.563 15.529 56.6263 15.5026 56.7244C15.2352 57.7102 14.9827 58.6533 14.7451 59.5539C14.6896 59.7635 14.5534 59.868 14.3364 59.8673L11.9591 59.8598C11.8517 59.8598 11.7969 59.8062 11.7948 59.6989C11.7933 59.5951 11.8079 59.4938 11.8385 59.395C12.9141 55.9073 13.99 52.4062 15.0662 48.8915C15.1722 48.5447 15.2843 48.1993 15.4023 47.8552C15.5375 47.4629 15.8185 47.2653 16.2453 47.2625C17.1195 47.2561 17.9866 47.2511 18.8467 47.2476C19.4858 47.2454 19.8593 47.4299 20.0428 48.0365C21.1781 51.7885 22.2629 55.321 23.2972 58.6338C23.406 58.9828 23.5031 59.3289 23.5885 59.6722C23.594 59.6942 23.5944 59.7172 23.5897 59.7394C23.585 59.7616 23.5752 59.7825 23.5613 59.8004C23.5473 59.8183 23.5294 59.8327 23.5089 59.8426C23.4885 59.8526 23.4661 59.8577 23.4434 59.8577L21.0853 59.863C20.8462 59.8637 20.6954 59.7486 20.6328 59.5176L19.8891 56.7745C19.845 56.6124 19.739 56.5314 19.5712 56.5314L15.7374 56.5325C15.731 56.5325 15.7246 56.5332 15.7182 56.5346ZM17.4393 49.5568C17.1 50.9523 16.6753 52.3724 16.32 53.7595C16.2752 53.9329 16.3011 54.0871 16.3979 54.2222C16.4192 54.252 16.4473 54.2705 16.4822 54.2776C16.655 54.3131 16.819 54.333 16.9741 54.3373C17.6143 54.3529 18.2808 54.3526 18.9736 54.3362C18.9945 54.3359 19.015 54.3312 19.034 54.3225C19.053 54.3138 19.07 54.3013 19.0839 54.2857C19.0978 54.2701 19.1084 54.2517 19.1149 54.2318C19.1215 54.2119 19.1239 54.1908 19.122 54.1699C19.1134 54.0789 19.0985 53.9933 19.0771 53.913C18.7008 52.5085 18.3128 51.0458 17.913 49.5248C17.8821 49.4065 17.7498 49.3617 17.6377 49.3777C17.5903 49.3843 17.5459 49.4049 17.5105 49.4368C17.4751 49.4688 17.4503 49.5106 17.4393 49.5568Z" fill="#218BC7"/>
<path d="M57.2655 56.5836C57.1766 56.5509 57.0809 56.5342 56.9785 56.5335C55.7792 56.5307 54.5596 56.5307 53.3197 56.5335C53.1739 56.5335 53.0821 56.6042 53.0444 56.7457C52.794 57.6853 52.5301 58.6292 52.2527 59.5773C52.1908 59.7913 52.0478 59.895 51.8238 59.8886C51.1003 59.8694 50.3328 59.8595 49.5212 59.8588C49.4719 59.8589 49.4245 59.84 49.3886 59.8061C49.3527 59.7722 49.331 59.7259 49.328 59.6765C49.3216 59.5734 49.3359 59.4657 49.3707 59.3534C50.5202 55.6262 51.6922 51.8127 52.8865 47.9128C53.0103 47.5088 53.3773 47.2508 53.7913 47.2529C54.7175 47.2586 55.6526 47.2572 56.5965 47.2486C57.1044 47.2444 57.4373 47.5642 57.5824 48.0461C58.5869 51.3774 59.603 54.7122 60.6309 58.0506C60.7589 58.4671 60.8984 58.9032 61.0492 59.3588C61.0883 59.4767 61.1107 59.6011 61.1164 59.7319C61.1171 59.7479 61.1146 59.7639 61.1088 59.7789C61.1031 59.7939 61.0944 59.8076 61.0832 59.8191C61.072 59.8306 61.0586 59.8396 61.0437 59.8457C61.0289 59.8518 61.0129 59.8548 60.9969 59.8545C60.2489 59.8364 59.486 59.8769 58.7263 59.8247C58.3454 59.7991 58.117 59.5229 58.0253 59.1519C57.819 58.3289 57.6038 57.5144 57.3797 56.7084C57.3717 56.6799 57.3573 56.6538 57.3374 56.6322C57.3176 56.6105 57.2929 56.5939 57.2655 56.5836ZM54.9651 49.5728C54.5777 51.0067 54.1637 52.4886 53.8127 53.9258C53.8008 53.9743 53.8 54.0248 53.8104 54.0737C53.8208 54.1225 53.8422 54.1683 53.8729 54.2077C53.9036 54.2471 53.9428 54.2791 53.9877 54.3011C54.0325 54.3232 54.0817 54.3348 54.1317 54.3352L56.4631 54.3522C56.5023 54.3522 56.5357 54.3384 56.5634 54.3106C56.663 54.209 56.6876 54.0775 56.6371 53.9162C56.1967 52.5068 55.8084 51.0703 55.4719 49.6069C55.41 49.335 55.0408 49.2935 54.9651 49.5728Z" fill="#F18A21"/>
<path d="M66.6851 53.1475C66.779 53.1617 66.8388 53.1198 66.8644 53.0217C67.033 52.3728 67.2794 51.7054 67.6038 51.0195C68.1558 49.8525 68.6673 48.7256 69.1382 47.6388C69.2363 47.4128 69.3996 47.2571 69.6663 47.2561C70.4481 47.2547 71.2413 47.2554 72.0458 47.2582C72.0809 47.2582 72.1147 47.2717 72.1402 47.2959C72.1656 47.3201 72.1807 47.3532 72.1824 47.3883C72.1881 47.4913 72.1681 47.5894 72.1226 47.6825C70.8735 50.2242 69.6233 52.7655 68.3721 55.3064C68.2259 55.6039 68.1491 55.8619 68.1501 56.2094C68.1551 57.3416 68.1558 58.4746 68.1523 59.6082C68.1521 59.6432 68.145 59.6778 68.1312 59.71C68.1173 59.7421 68.0972 59.7712 68.0719 59.7954C68.0466 59.8195 68.0167 59.8384 67.9839 59.8507C67.9511 59.8631 67.9162 59.8687 67.8812 59.8673C67.1443 59.8367 66.4027 59.8438 65.6565 59.8886C65.4196 59.9028 65.3012 59.7937 65.3012 59.5613C65.2998 58.5314 65.3019 57.46 65.3076 56.3469C65.3097 55.9617 65.2151 55.5747 65.0238 55.1859C63.8074 52.7182 62.6059 50.3031 61.4194 47.9405C61.3362 47.7756 61.2675 47.5958 61.2135 47.4011C61.2089 47.3842 61.2083 47.3665 61.2117 47.3494C61.2152 47.3322 61.2225 47.3161 61.2332 47.3021C61.244 47.2882 61.2578 47.2769 61.2736 47.2691C61.2894 47.2613 61.3068 47.2572 61.3244 47.2571L63.9664 47.2561C64.0118 47.2561 64.0563 47.2692 64.0945 47.2937C64.1327 47.3183 64.1631 47.3533 64.1819 47.3947C64.8705 48.8865 65.5519 50.3781 66.2263 51.8692C66.3999 52.2523 66.5187 52.6439 66.5827 53.0441C66.5868 53.0699 66.5989 53.0937 66.6172 53.1123C66.6356 53.1308 66.6594 53.1431 66.6851 53.1475Z" fill="#F18A21"/>
<path d="M76.0268 56.7308C75.7551 57.6412 75.494 58.5954 75.2436 59.5933C75.225 59.6679 75.1822 59.7343 75.1218 59.7821C75.0614 59.8299 74.9868 59.8565 74.9097 59.8577L72.5366 59.894C72.4862 59.8945 72.4369 59.8793 72.3957 59.8504C72.3545 59.8215 72.3236 59.7804 72.3072 59.733C72.2816 59.6612 72.2805 59.589 72.304 59.5165C73.6833 55.1511 74.8773 51.3045 75.886 47.9768C76.029 47.5056 76.3672 47.2667 76.9007 47.2603C77.6163 47.2518 78.4699 47.2515 79.4615 47.2593C80.2116 47.2646 80.4805 47.6132 80.6769 48.27C81.8115 52.081 82.9176 55.7186 83.9953 59.1828C84.05 59.357 84.0963 59.5372 84.134 59.7234C84.1372 59.7384 84.1374 59.7538 84.1345 59.7689C84.1316 59.784 84.1258 59.7983 84.1172 59.8111C84.1087 59.824 84.0976 59.835 84.0847 59.8435C84.0719 59.852 84.0574 59.858 84.0422 59.8609C83.9369 59.8801 83.8349 59.889 83.736 59.8876C83.0282 59.8762 82.3076 59.8662 81.5742 59.8577C81.5088 59.857 81.4426 59.8495 81.3758 59.8353C81.3381 59.8275 81.3092 59.8072 81.2893 59.7745C81.2225 59.6644 81.1723 59.5464 81.1389 59.4206C80.9134 58.5734 80.6779 57.6995 80.4325 56.799C80.4117 56.7222 80.3661 56.6544 80.3029 56.606C80.2396 56.5576 80.1622 56.5314 80.0825 56.5314H76.2946C76.2345 56.5314 76.1759 56.5508 76.1277 56.5867C76.0794 56.6226 76.044 56.6732 76.0268 56.7308ZM76.7577 54.0505C76.7481 54.086 76.7467 54.1232 76.7538 54.1593C76.7608 54.1954 76.776 54.2294 76.7983 54.2586C76.8206 54.2879 76.8493 54.3117 76.8822 54.3281C76.9151 54.3445 76.9514 54.3531 76.9882 54.3533L79.4146 54.3661C79.4513 54.3661 79.4876 54.3578 79.5206 54.3416C79.5536 54.3255 79.5824 54.302 79.6049 54.2729C79.6274 54.2439 79.6429 54.2101 79.6502 54.1741C79.6575 54.1381 79.6565 54.101 79.6472 54.0654L78.4585 49.5568C78.4453 49.5055 78.4155 49.4601 78.3738 49.4275C78.332 49.3949 78.2807 49.3771 78.2277 49.3767C78.1747 49.3763 78.1231 49.3935 78.0809 49.4255C78.0387 49.4575 78.0083 49.5025 77.9944 49.5536L76.7577 54.0505Z" fill="#F18A21"/>
<path d="M76.9327 63.2021C76.8569 62.1413 77.2058 61.458 78.3795 61.6563C78.3983 61.6594 78.4157 61.6682 78.4294 61.6815C78.4432 61.6948 78.4526 61.7121 78.4564 61.7309C78.4777 61.8347 78.4784 61.9384 78.4585 62.0422C78.4514 62.0792 78.4293 62.1012 78.3924 62.1083C78.2195 62.1435 77.9719 62.1595 77.829 62.2597C77.4939 62.4942 77.3598 62.8166 77.4267 63.2267C77.4555 63.4015 77.6241 63.4836 77.7906 63.4729C77.9663 63.4616 78.1416 63.4566 78.3166 63.458C78.414 63.4594 78.4656 63.5081 78.4713 63.6041L78.4788 63.7224C78.4802 63.7428 78.4772 63.7632 78.4701 63.7824C78.4629 63.8015 78.4518 63.819 78.4374 63.8336C78.423 63.8482 78.4056 63.8596 78.3865 63.8671C78.3673 63.8746 78.3468 63.8779 78.3262 63.877C78.0306 63.8621 77.4438 63.7181 77.4523 64.2256C77.4701 65.2946 77.4708 66.3621 77.4545 67.4283C77.4523 67.5548 77.3879 67.6188 77.2613 67.6202L77.1365 67.6212C77.0035 67.6227 76.9366 67.5569 76.9359 67.424L76.9295 64.0092C76.9295 63.9531 76.9039 63.9129 76.8527 63.8887C76.746 63.8383 76.625 63.8258 76.4899 63.8514C76.4753 63.8541 76.4603 63.8535 76.446 63.8497C76.4317 63.846 76.4184 63.8391 76.407 63.8297C76.3956 63.8202 76.3864 63.8084 76.3801 63.795C76.3738 63.7817 76.3704 63.7671 76.3704 63.7523V63.5721C76.3704 63.5159 76.3985 63.4882 76.4547 63.4889C76.6681 63.49 76.9551 63.5081 76.9327 63.2021Z" fill="#474747"/>
<path d="M12.1447 66.9336C12.1476 67.0686 12.2169 67.1361 12.3528 67.1361H14.9766C15.1281 67.1361 15.2038 67.2122 15.2038 67.3643V67.4336C15.2038 67.4828 15.1842 67.53 15.1491 67.5648C15.1141 67.5996 15.0666 67.6191 15.0171 67.6191L11.8438 67.6244C11.6802 67.6244 11.598 67.5427 11.5973 67.3792L11.5824 61.9772C11.5824 61.7554 11.6934 61.6449 11.9153 61.6456L15.0427 61.6467C15.0854 61.6467 15.1263 61.6634 15.1567 61.6934C15.187 61.7233 15.2043 61.764 15.2049 61.8066L15.207 61.9846C15.2078 62.087 15.1572 62.1381 15.0555 62.1381L12.2802 62.1499C12.2457 62.1499 12.2126 62.1635 12.1882 62.1877C12.1638 62.2118 12.15 62.2447 12.15 62.2789L12.1522 64.2032C12.1522 64.2907 12.1942 64.3461 12.2781 64.3695C12.3521 64.3902 12.4325 64.3997 12.5192 64.3983C13.2725 64.3855 13.9889 64.3838 14.6682 64.393C14.6974 64.3932 14.7254 64.4046 14.7464 64.4249C14.7675 64.4451 14.7799 64.4726 14.7813 64.5017L14.792 64.7278C14.797 64.8202 14.7528 64.8685 14.6597 64.8728C13.843 64.9097 13.0947 64.9122 12.4147 64.8802C12.2685 64.8738 12.1661 64.9399 12.1597 65.0977C12.1376 65.7161 12.1326 66.328 12.1447 66.9336Z" fill="#474747"/>
<path d="M49.3143 61.6369L49.1396 61.6469C49.0266 61.6535 48.9403 61.7502 48.9469 61.8631L48.9654 62.1845C48.9719 62.2974 49.0688 62.3836 49.1817 62.3771L49.3564 62.367C49.4694 62.3605 49.5557 62.2638 49.5492 62.1509L49.5306 61.8295C49.5241 61.7166 49.4272 61.6304 49.3143 61.6369Z" fill="#474747"/>
<path d="M60.1251 66.5327C60.123 66.9975 60.2659 67.1244 60.7194 67.1617C60.7863 67.1667 60.8197 67.203 60.8197 67.2705V67.4837C60.8197 67.5448 60.7902 67.5821 60.7312 67.5956C60.1347 67.731 59.6545 67.5178 59.6513 66.8611C59.6435 65.1951 59.6421 63.496 59.6471 61.7639C59.6478 61.6737 59.693 61.6328 59.7826 61.6413L59.9693 61.6594C60.0668 61.6687 60.1158 61.7223 60.1166 61.8204C60.1272 63.4203 60.1301 64.9911 60.1251 66.5327Z" fill="#474747"/>
<path d="M68.7156 66.6585C68.7156 66.9912 68.9333 67.166 69.2481 67.1532C69.3099 67.1511 69.3523 67.1788 69.375 67.2364C69.4134 67.333 69.412 67.429 69.3708 67.5242C69.3631 67.5422 69.3514 67.5584 69.3367 67.5714C69.3219 67.5845 69.3044 67.5942 69.2854 67.5999C68.8387 67.7342 68.5157 67.6074 68.3166 67.2193C68.2099 67.0114 68.2344 66.7747 68.2301 66.5466C68.2045 65.032 68.1978 63.463 68.2099 61.8396C68.2113 61.711 68.2764 61.647 68.4051 61.6477H68.5289C68.6512 61.6484 68.7128 61.7103 68.7135 61.8332C68.7149 63.3926 68.7156 65.0011 68.7156 66.6585Z" fill="#474747"/>
<path d="M72.9321 61.6522L72.7358 61.6477C72.6285 61.6453 72.5397 61.7302 72.5372 61.8373L72.5298 62.1656C72.5273 62.2727 72.6123 62.3615 72.7195 62.364L72.9158 62.3684C73.023 62.3709 73.1119 62.286 73.1143 62.1788L73.1218 61.8506C73.1242 61.7434 73.0393 61.6546 72.9321 61.6522Z" fill="#474747"/>
<path d="M44.2224 63.4644C44.2421 63.4598 44.2597 63.4487 44.2723 63.4328C44.2849 63.4169 44.2918 63.3972 44.2917 63.377L44.296 62.3354C44.2967 62.1705 44.3796 62.0877 44.5446 62.087C44.578 62.0862 44.6111 62.0898 44.6438 62.0976C44.7619 62.1232 44.8192 62.1964 44.8156 62.3172C44.8092 62.5824 44.8071 62.8496 44.8092 63.119C44.8135 63.5849 45.2446 63.491 45.5444 63.4889C45.5886 63.4883 45.6316 63.5031 45.6663 63.5309C45.7009 63.5587 45.7249 63.5977 45.7343 63.6414L45.7461 63.6925C45.7624 63.7714 45.7304 63.8141 45.65 63.8205C45.3406 63.845 44.8284 63.7288 44.8231 64.1979C44.8131 64.9484 44.811 65.704 44.8167 66.4645C44.821 67.1873 45.1667 67.0413 45.6714 67.2001C45.7098 67.2122 45.7286 67.2385 45.7279 67.279L45.7269 67.4816C45.7261 67.5612 45.686 67.6049 45.6063 67.6127C44.87 67.6799 44.3291 67.5029 44.3141 66.6489C44.2999 65.838 44.2988 64.9701 44.3109 64.0454C44.3114 64.0173 44.3061 63.9894 44.2954 63.9634C44.2848 63.9374 44.269 63.9138 44.2489 63.894C44.2289 63.8743 44.205 63.8588 44.1788 63.8486C44.1526 63.8383 44.1246 63.8335 44.0965 63.8343L43.851 63.8418C43.7692 63.8439 43.7344 63.8045 43.7465 63.7235L43.7721 63.5476C43.775 63.528 43.7854 63.5104 43.8012 63.4984C43.8169 63.4865 43.8368 63.4811 43.8564 63.4836C43.9787 63.4999 44.1007 63.4935 44.2224 63.4644Z" fill="#474747"/>
<path d="M20.4237 67.1212C20.891 66.941 21.0532 66.1223 20.5197 65.9133C20.0267 65.7193 19.4794 65.7406 18.9555 65.5753C18.5315 65.4417 18.3092 65.1471 18.2886 64.6915C18.2608 64.0764 18.503 63.6392 19.0963 63.4473C19.7835 63.2267 20.5229 63.3802 21.1066 63.7395C21.1487 63.7655 21.1789 63.807 21.1906 63.8551C21.2024 63.9031 21.1948 63.9539 21.1695 63.9964L21.1503 64.0284C21.0706 64.162 20.9586 64.2007 20.8142 64.1446C20.6677 64.087 20.5218 64.0284 20.3767 63.9687C19.9499 63.7928 19.1902 63.7746 18.9256 64.2416C18.6812 64.6734 18.8797 65.1009 19.3513 65.1894C19.6551 65.2463 19.9574 65.2871 20.2583 65.312C20.8665 65.3642 21.3072 65.6542 21.3818 66.3174C21.5003 67.376 20.5602 67.8185 19.6597 67.746C19.1155 67.7026 18.6396 67.5303 18.232 67.2289C18.121 67.1472 18.1047 67.0498 18.1829 66.9368L18.2246 66.8771C18.2427 66.851 18.2659 66.8288 18.2927 66.8118C18.3196 66.7949 18.3497 66.7835 18.3811 66.7783C18.4125 66.7731 18.4447 66.7743 18.4757 66.7818C18.5068 66.7892 18.536 66.8028 18.5617 66.8216C19.124 67.2342 19.7461 67.3835 20.4237 67.1212Z" fill="#474747"/>
<path d="M24.426 66.9645C24.4552 66.8842 24.5167 66.8248 24.6106 66.7864C24.6482 66.7715 24.6889 66.7662 24.7291 66.7713C24.7692 66.7763 24.8074 66.7914 24.84 66.8152C25.4191 67.2381 26.0134 67.3568 26.623 67.1713C27.3881 66.9389 27.324 65.9207 26.4907 65.8013C25.6072 65.6755 24.5189 65.716 24.584 64.4548C24.6117 63.9047 24.9329 63.5881 25.4333 63.4367C26.1005 63.2327 26.7664 63.3382 27.4307 63.7533C27.514 63.8052 27.5318 63.8738 27.4841 63.9591L27.4275 64.0582C27.3557 64.1847 27.2536 64.2174 27.1213 64.1563C26.925 64.0653 26.7319 63.9914 26.5419 63.9345C25.9625 63.7618 25.0727 63.8535 25.1121 64.6659C25.1644 65.7544 27.7573 64.6766 27.6602 66.5039C27.6442 66.8142 27.5535 67.1372 27.3112 67.3483C26.5441 68.0189 25.2594 67.7779 24.5125 67.2417C24.4143 67.1713 24.3855 67.0789 24.426 66.9645Z" fill="#474747"/>
<path d="M38.1383 63.699C38.2919 63.6169 38.4296 63.5028 38.5949 63.4431C39.5233 63.103 40.4548 63.5337 40.5796 64.571C40.6571 65.2214 40.6778 66.1745 40.6415 67.4304C40.6379 67.5619 40.5707 67.6262 40.4398 67.6234L40.3352 67.6223C40.2115 67.6202 40.1492 67.5569 40.1485 67.4325C40.1478 66.6201 40.1446 65.8383 40.1389 65.0871C40.1336 64.5177 39.8892 63.9463 39.2405 63.8813C38.3111 63.7885 37.9334 64.4197 37.9515 65.2459C37.9672 65.9432 37.9643 66.6745 37.943 67.44C37.9394 67.5708 37.8726 67.6369 37.7424 67.6383L37.6229 67.6394C37.5091 67.6408 37.4522 67.5843 37.4522 67.4698L37.4511 63.6446C37.4512 63.6154 37.4572 63.5866 37.4689 63.5599C37.4806 63.5331 37.4976 63.5091 37.519 63.4893C37.5403 63.4695 37.5655 63.4543 37.5929 63.4447C37.6203 63.4351 37.6494 63.4313 37.6784 63.4335C37.8029 63.4427 37.8985 63.5131 37.9654 63.6446C38.0045 63.7206 38.0622 63.7388 38.1383 63.699Z" fill="#474747"/>
<path d="M81.7983 65.7576C81.5987 66.2161 81.985 66.8675 82.3382 67.086C82.9186 67.4453 83.5556 67.2342 84.0134 66.7993C84.15 66.6685 84.2858 66.6695 84.421 66.8025C84.4502 66.8316 84.4662 66.87 84.469 66.9176C84.4768 67.0562 84.426 67.1681 84.3164 67.2534C83.6997 67.7367 83.0456 67.8753 82.3542 67.6692C81.1581 67.3121 81.1506 65.9133 81.2509 64.9005C81.5006 62.3812 85.0911 63.1233 84.5789 65.5679C84.5728 65.5969 84.5569 65.623 84.5338 65.6418C84.5107 65.6606 84.4818 65.671 84.4519 65.6713L81.8975 65.6915C81.8498 65.6923 81.8168 65.7143 81.7983 65.7576ZM81.9402 65.3003H83.8437C83.8972 65.3003 83.9485 65.279 83.9863 65.2413C84.0242 65.2035 84.0454 65.1522 84.0454 65.0988V65.0881C84.0454 64.7632 83.9251 64.4517 83.711 64.2219C83.4969 63.9922 83.2065 63.8631 82.9037 63.8631H82.8802C82.5774 63.8631 82.287 63.9922 82.0729 64.2219C81.8588 64.4517 81.7385 64.7632 81.7385 65.0881V65.0988C81.7385 65.1252 81.7437 65.1514 81.7539 65.1759C81.764 65.2003 81.7789 65.2226 81.7976 65.2413C81.8163 65.26 81.8385 65.2748 81.863 65.2849C81.8875 65.2951 81.9137 65.3003 81.9402 65.3003Z" fill="#474747"/>
<path d="M31.319 65.7512C31.2155 66.3333 31.4748 66.9954 32.0979 67.1841C32.6456 67.3497 33.1375 67.2193 33.5736 66.7928C33.6917 66.6763 33.8129 66.6727 33.9374 66.7822C33.9474 66.7907 33.9559 66.8003 33.963 66.811C34.0669 66.9567 34.0498 67.086 33.9118 67.199C33.1486 67.8245 32.3703 67.9347 31.5772 67.5295C30.7151 67.0892 30.6937 65.8184 30.7812 64.9676C30.8836 63.969 31.4019 63.4349 32.3358 63.3652C33.2705 63.2949 33.9673 63.8599 34.0868 64.7779C34.1188 65.0188 34.1377 65.2523 34.1434 65.4783C34.1441 65.5028 34.1399 65.5272 34.131 65.55C34.1221 65.5729 34.1087 65.5938 34.0917 65.6114C34.0746 65.6291 34.0541 65.6432 34.0315 65.6529C34.0088 65.6626 33.9845 65.6678 33.9598 65.6681L31.3841 65.6958C31.3478 65.6965 31.3261 65.715 31.319 65.7512ZM31.494 65.3099L33.3804 65.3141C33.4368 65.3141 33.4908 65.2918 33.5306 65.252C33.5704 65.2122 33.5928 65.1582 33.5928 65.102V65.0721C33.5931 64.9135 33.5643 64.7563 33.5082 64.6097C33.4521 64.463 33.3696 64.3297 33.2656 64.2173C33.1615 64.1049 33.0379 64.0157 32.9019 63.9548C32.7658 63.8938 32.6198 63.8623 32.4724 63.8621H32.4063C32.1086 63.8615 31.8229 63.9883 31.612 64.2144C31.4011 64.4405 31.2822 64.7475 31.2816 65.0679V65.0977C31.2816 65.154 31.304 65.2079 31.3438 65.2477C31.3836 65.2875 31.4377 65.3099 31.494 65.3099Z" fill="#474747"/>
<path d="M55.5316 65.2086C55.601 64.8258 55.6341 64.2064 55.2265 64.0134C54.6268 63.7299 54.0698 63.8194 53.5139 64.1339C53.3944 64.2014 53.3009 64.1759 53.2333 64.0572C53.2219 64.0366 53.2123 64.0156 53.2045 63.9943C53.1561 63.8585 53.1945 63.7551 53.3197 63.684C54.0069 63.2924 54.715 63.2373 55.4441 63.5188C55.8297 63.668 56.0264 63.9648 56.0342 64.409C56.0477 65.1958 56.0598 66.1546 56.0705 67.2854C56.0712 67.4169 56.0289 67.5274 55.9435 67.617C55.9263 67.6352 55.905 67.6492 55.8814 67.6578C55.8577 67.6663 55.8324 67.6693 55.8074 67.6664C55.7823 67.6635 55.7583 67.6548 55.7371 67.6411C55.7159 67.6273 55.6982 67.6088 55.6853 67.5871L55.5946 67.4368C55.5845 67.42 55.571 67.4055 55.5549 67.3943C55.5388 67.3831 55.5206 67.3755 55.5013 67.3719C55.4821 67.3682 55.4623 67.3687 55.4432 67.3733C55.4242 67.3779 55.4063 67.3864 55.3908 67.3984C54.9156 67.7623 54.365 67.8533 53.7391 67.6713C53.2361 67.5256 52.9569 67.2204 52.9015 66.7555C52.8129 66.0092 53.1693 65.4591 53.9226 65.3632C54.3878 65.3049 54.8687 65.296 55.3652 65.3365C55.4037 65.3398 55.4421 65.3284 55.4729 65.3048C55.5037 65.2812 55.5246 65.2469 55.5316 65.2086ZM53.9727 67.2054C54.4102 67.3483 55.2318 67.214 55.4826 66.7289C55.6266 66.4506 55.5178 66.134 55.5658 65.828C55.568 65.8145 55.5675 65.8007 55.5642 65.7874C55.5609 65.7741 55.555 65.7616 55.5467 65.7508C55.5384 65.7399 55.5279 65.7308 55.516 65.7241C55.504 65.7174 55.4908 65.7132 55.4772 65.7118C54.9811 65.6606 54.312 65.6009 53.8436 65.7992C53.1266 66.1009 53.293 66.9826 53.9727 67.2054Z" fill="#474747"/>
<path d="M72.8909 63.4751H72.7564C72.6621 63.4751 72.5857 63.5514 72.5857 63.6456V67.4624C72.5857 67.5566 72.6621 67.6329 72.7564 67.6329H72.8909C72.9851 67.6329 73.0616 67.5566 73.0616 67.4624V63.6456C73.0616 63.5514 72.9851 63.4751 72.8909 63.4751Z" fill="#474747"/>
<path d="M49.3429 63.4857H49.1701C49.0787 63.4857 49.0047 63.5597 49.0047 63.651V67.4592C49.0047 67.5504 49.0787 67.6244 49.1701 67.6244H49.3429C49.4343 67.6244 49.5083 67.5504 49.5083 67.4592V63.651C49.5083 63.5597 49.4343 63.4857 49.3429 63.4857Z" fill="#474747"/>
</svg>
