<svg width="34" height="34" viewBox="0 0 34 34" fill="none" xmlns="http://www.w3.org/2000/svg">
<path fill-rule="evenodd" clip-rule="evenodd" d="M8.71216 0H20.0795L29.7137 10.042V29.5737C29.7137 32.0205 27.7341 34 25.2958 34H8.71216C6.26539 34 4.28589 32.0205 4.28589 29.5737V4.42627C4.28585 1.9795 6.26535 0 8.71216 0Z" fill="#D74D52"/>
<path fill-rule="evenodd" clip-rule="evenodd" d="M20.0698 0V9.96552H29.7125L20.0698 0Z" fill="#9F1E23"/>
<path d="M9.2041 25.3686V19.1582H11.8463C12.5005 19.1582 13.0187 19.3366 13.4095 19.7019C13.8003 20.0587 13.9957 20.543 13.9957 21.1462C13.9957 21.7494 13.8003 22.2337 13.4095 22.5905C13.0187 22.9558 12.5005 23.1342 11.8463 23.1342H10.7928V25.3686H9.2041ZM10.7928 21.7834H11.6679C11.9057 21.7834 12.0927 21.7324 12.2201 21.6135C12.3475 21.5031 12.4155 21.3501 12.4155 21.1463C12.4155 20.9424 12.3476 20.7894 12.2201 20.679C12.0927 20.56 11.9058 20.5091 11.6679 20.5091H10.7928V21.7834ZM14.6499 25.3686V19.1582H16.8503C17.2836 19.1582 17.6914 19.2177 18.0737 19.3451C18.4559 19.4725 18.8043 19.651 19.1101 19.8974C19.416 20.1352 19.6624 20.4581 19.8408 20.8659C20.0107 21.2737 20.1042 21.7409 20.1042 22.2677C20.1042 22.7859 20.0107 23.2532 19.8408 23.6609C19.6624 24.0687 19.416 24.3916 19.1101 24.6294C18.8043 24.8758 18.4559 25.0542 18.0737 25.1817C17.6914 25.3091 17.2836 25.3686 16.8503 25.3686H14.6499ZM16.2046 24.0178H16.6634C16.9097 24.0178 17.1391 23.9923 17.3515 23.9328C17.5554 23.8734 17.7508 23.7799 17.9377 23.6525C18.1161 23.5251 18.2606 23.3466 18.3625 23.1087C18.4645 22.8709 18.5154 22.5905 18.5154 22.2677C18.5154 21.9363 18.4645 21.656 18.3625 21.4181C18.2606 21.1802 18.1161 21.0018 17.9377 20.8744C17.7508 20.747 17.5554 20.6535 17.3515 20.594C17.1391 20.5346 16.9097 20.509 16.6634 20.509H16.2046V24.0178ZM20.9028 25.3686V19.1582H25.3206V20.509H22.4915V21.503H24.7513V22.8454H22.4915V25.3686H20.9028Z" fill="white"/>
</svg>
